<?xml version="1.0" standalone="no"?>
<!DOCTYPE svg PUBLIC "-//W3C//DTD SVG 20010904//EN"
 "http://www.w3.org/TR/2001/REC-SVG-20010904/DTD/svg10.dtd">
<svg version="1.0" xmlns="http://www.w3.org/2000/svg"
 width="1181.000000pt" height="1181.000000pt" viewBox="0 0 1181.000000 1181.000000"
 preserveAspectRatio="xMidYMid meet">
<metadata>
Created by potrace 1.14, written by Peter Selinger 2001-2017
</metadata>
<g transform="translate(0.000000,1181.000000) scale(0.100000,-0.100000)"
fill="#000000" stroke="none">
<path d="M5545 11800 c-49 -4 -142 -13 -205 -20 -63 -7 -133 -14 -155 -16 -22
-2 -53 -6 -70 -8 -16 -3 -52 -8 -80 -12 -27 -3 -70 -10 -95 -15 -25 -5 -61
-12 -80 -14 -118 -18 -529 -113 -540 -125 -3 -3 -9 -5 -15 -5 -17 0 -240 -69
-245 -75 -3 -4 -12 -7 -20 -7 -8 0 -71 -21 -140 -46 -120 -44 -166 -62 -310
-122 -84 -35 -371 -174 -389 -188 -7 -6 -19 -12 -26 -13 -8 -1 -51 -23 -97
-49 -46 -26 -105 -60 -131 -74 -26 -15 -58 -36 -70 -46 -12 -11 -22 -17 -23
-15 -1 6 -159 -90 -189 -114 -11 -9 -51 -37 -90 -62 -38 -25 -72 -48 -75 -53
-3 -4 -22 -17 -42 -30 -21 -12 -38 -28 -38 -33 0 -6 -3 -9 -6 -5 -4 3 -12 1
-19 -6 -6 -7 -39 -32 -73 -57 -34 -24 -62 -48 -62 -52 0 -5 -6 -8 -12 -8 -7 0
-37 -23 -67 -51 -30 -28 -63 -56 -73 -63 -10 -7 -35 -28 -56 -47 -20 -19 -73
-65 -117 -104 -157 -139 -587 -595 -597 -634 -2 -6 -27 -37 -55 -69 -29 -31
-53 -63 -53 -69 0 -7 -4 -13 -9 -13 -4 0 -21 -19 -37 -42 -16 -24 -33 -46 -39
-50 -5 -4 -7 -8 -3 -8 4 0 -3 -11 -15 -24 -38 -41 -46 -54 -40 -60 4 -3 1 -6
-6 -6 -8 0 -11 -6 -7 -16 3 -8 2 -13 -3 -10 -10 6 -62 -57 -65 -79 -1 -8 -11
-25 -22 -37 -54 -62 -167 -255 -157 -271 3 -5 2 -7 -4 -4 -9 6 -46 -55 -135
-220 -22 -40 -36 -73 -31 -73 4 0 3 -4 -3 -8 -17 -10 -84 -149 -81 -164 2 -7
2 -9 -1 -4 -3 5 -18 -19 -33 -53 -16 -35 -26 -67 -23 -72 3 -5 1 -9 -5 -9 -6
0 -7 -7 -4 -17 4 -10 2 -14 -4 -10 -8 5 -55 -89 -54 -110 0 -4 -7 -18 -14 -30
-8 -12 -17 -30 -18 -40 -2 -10 -9 -29 -15 -43 -24 -57 -34 -86 -38 -108 -3
-13 -11 -34 -18 -45 -13 -21 -87 -245 -91 -277 -1 -8 -5 -22 -8 -30 -14 -35
-35 -114 -81 -305 -70 -294 -126 -672 -143 -975 -11 -194 -7 -717 6 -840 7
-58 14 -133 17 -168 3 -35 9 -75 15 -89 5 -13 7 -28 4 -33 -10 -16 46 -350 86
-520 12 -47 22 -92 24 -100 4 -21 69 -257 98 -360 53 -185 195 -559 225 -594
9 -11 11 -16 5 -12 -9 5 -8 -1 2 -21 8 -15 28 -61 46 -100 17 -40 35 -70 39
-68 4 3 8 -7 8 -22 0 -14 7 -32 16 -39 10 -7 17 -16 17 -21 -1 -18 11 -43 21
-43 6 0 9 -3 5 -6 -7 -7 60 -146 75 -155 5 -3 10 -10 10 -15 1 -22 32 -73 41
-67 6 3 7 1 4 -4 -4 -6 5 -26 18 -44 14 -19 28 -42 31 -52 4 -9 11 -17 16 -17
5 0 7 -4 4 -9 -6 -9 49 -101 68 -113 6 -4 7 -8 3 -8 -4 0 -3 -6 2 -12 6 -7 49
-71 97 -143 48 -71 91 -131 96 -133 4 -2 8 -8 8 -13 0 -14 152 -209 162 -209
5 0 6 -5 2 -12 -5 -8 -2 -9 12 -4 10 4 15 4 12 0 -15 -14 19 -59 216 -278 136
-152 314 -326 332 -326 8 0 13 -4 10 -8 -4 -7 74 -88 134 -137 14 -11 74 -61
134 -112 60 -51 114 -90 120 -86 6 3 8 3 4 -2 -6 -6 42 -55 55 -55 3 0 18 -11
33 -25 14 -13 31 -22 36 -19 4 3 7 1 6 -4 -3 -11 151 -125 170 -125 6 0 10 -3
7 -5 -5 -6 61 -53 71 -51 4 0 10 -4 13 -9 9 -13 163 -113 252 -162 41 -23 88
-49 104 -59 17 -10 33 -16 38 -14 4 2 7 0 7 -6 0 -12 372 -198 539 -270 157
-66 351 -139 393 -146 18 -4 35 -11 39 -16 3 -6 10 -9 15 -8 5 1 23 -3 39 -10
17 -7 77 -26 135 -42 58 -17 134 -39 170 -49 175 -51 547 -126 723 -145 32 -3
64 -8 70 -10 7 -3 128 -14 271 -25 277 -21 578 -25 791 -10 72 5 168 12 214
15 47 4 141 15 210 26 69 11 142 21 161 23 40 4 75 10 215 37 55 11 114 23
130 28 17 5 57 14 90 21 74 15 235 56 295 75 225 71 305 99 308 106 2 5 8 7
13 4 4 -3 30 3 56 13 26 11 98 39 158 63 61 23 112 45 115 49 3 4 17 10 32 13
37 10 282 127 286 138 2 5 8 7 13 3 5 -3 9 0 9 6 0 6 5 8 10 5 6 -3 10 -1 10
5 0 6 4 9 9 5 5 -3 36 11 69 30 33 19 62 35 65 35 12 0 156 87 152 92 -3 2 1
5 8 5 18 0 127 65 127 76 0 4 5 5 10 2 6 -3 10 -1 10 4 0 6 6 11 14 11 7 0 24
11 38 24 14 12 34 26 43 30 34 13 145 89 145 99 0 6 3 8 6 4 6 -6 107 65 161
114 18 16 35 29 38 29 3 0 11 5 18 11 7 5 35 27 63 47 195 141 724 638 707
665 -3 5 -2 7 4 4 5 -3 32 21 59 53 27 33 53 60 57 60 5 0 5 5 2 10 -3 6 -2
10 3 10 12 0 136 150 125 150 -4 0 0 5 10 11 9 6 15 14 12 20 -4 5 0 9 8 9 7
0 29 21 47 48 19 26 45 58 57 72 13 14 21 31 18 37 -2 7 0 12 5 10 5 -1 18 10
27 24 10 15 51 74 91 130 40 57 72 108 72 112 -1 5 5 14 13 20 22 17 92 131
76 123 -9 -5 -8 -2 1 6 26 22 84 122 82 142 0 10 2 15 5 12 7 -6 102 151 103
169 0 6 9 21 20 35 11 14 20 30 20 35 0 6 -5 3 -10 -5 -7 -10 -10 -11 -10 -2
0 7 7 15 15 18 8 4 12 10 9 15 -3 5 -1 9 4 9 10 0 49 80 44 92 -1 5 2 8 7 8 5
0 28 44 51 98 23 53 48 111 55 127 7 17 21 48 30 70 9 22 20 49 25 60 40 87
144 393 196 575 44 154 121 488 129 558 2 21 11 75 19 122 15 84 44 311 44
340 0 8 5 58 12 110 6 52 14 219 17 371 30 1393 -434 2740 -1321 3834 -255
315 -667 717 -951 927 -5 4 -24 19 -41 33 -17 13 -71 54 -120 89 -49 36 -107
79 -130 95 -23 17 -44 31 -49 31 -4 0 -24 13 -44 28 -122 94 -527 320 -771
431 -551 251 -1093 408 -1690 491 -230 31 -396 42 -715 45 -187 2 -380 0 -430
-5z m895 -245 c1201 -116 2299 -589 3210 -1385 222 -194 510 -495 701 -735
398 -498 736 -1121 939 -1734 361 -1087 384 -2272 64 -3376 -189 -656 -494
-1263 -918 -1830 -195 -261 -574 -665 -826 -882 -671 -576 -1479 -994 -2335
-1207 -458 -114 -849 -160 -1360 -160 -343 0 -464 7 -752 44 -1073 140 -2103
599 -2933 1306 -178 152 -533 512 -674 684 -172 210 -171 209 -267 345 -525
743 -860 1575 -988 2460 -44 303 -55 456 -55 820 0 378 12 550 60 865 158
1030 581 1966 1257 2780 154 186 520 551 707 706 967 803 2093 1245 3360 1318
141 8 654 -4 810 -19z"/>
<path d="M5688 11111 c-42 -3 -79 -8 -81 -11 -3 -3 1 -86 9 -184 8 -99 13
-183 12 -188 -2 -5 -69 72 -148 173 l-145 181 -100 -6 c-55 -4 -100 -8 -101
-9 -3 -3 47 -681 51 -692 2 -7 35 -8 100 -3 54 4 99 9 100 10 1 2 -4 86 -11
187 -8 101 -13 186 -11 188 2 2 69 -78 148 -177 l143 -181 96 7 c52 3 98 9
101 13 4 3 -5 162 -19 354 -25 336 -27 347 -47 345 -11 -1 -55 -4 -97 -7z"/>
<path d="M6203 11086 c-104 -34 -153 -94 -153 -187 0 -100 51 -151 221 -219
132 -54 160 -80 139 -129 -24 -60 -126 -64 -178 -8 -11 12 -24 38 -29 57 l-9
35 -103 3 -103 3 7 -43 c17 -101 76 -173 165 -203 68 -23 184 -34 249 -25 102
14 162 56 200 140 36 78 22 161 -37 223 -29 31 -113 77 -177 97 -94 29 -135
52 -142 78 -9 39 29 66 81 57 47 -7 72 -27 91 -72 l14 -33 95 0 c94 0 96 0 96
24 0 81 -64 157 -158 186 -85 27 -214 34 -269 16z"/>
<path d="M4586 10951 c-143 -37 -262 -73 -264 -80 -3 -10 156 -659 164 -670 4
-4 564 135 571 142 2 3 -4 37 -13 76 -12 51 -22 71 -33 71 -9 0 -92 -20 -184
-44 -117 -31 -169 -41 -172 -33 -2 7 -11 38 -19 69 l-14 58 36 9 c21 6 94 24
165 42 70 17 127 37 127 43 0 15 -28 117 -33 123 -3 2 -76 -14 -163 -37 -87
-22 -161 -37 -165 -33 -8 10 -29 96 -24 101 2 2 79 23 172 46 l168 43 -1 29
c-3 57 -24 114 -42 113 -9 -1 -134 -31 -276 -68z"/>
<path d="M7020 10941 c-122 -40 -197 -130 -236 -283 -40 -155 20 -323 135
-383 88 -45 147 -60 236 -60 80 0 95 3 137 27 52 31 120 105 116 127 -2 8 -36
35 -77 61 l-75 46 -46 -48 c-39 -40 -52 -48 -83 -48 -54 0 -104 24 -127 62
-18 27 -20 44 -16 93 11 126 59 216 125 236 75 22 155 -17 168 -83 8 -38 34
-48 130 -48 l76 0 -7 43 c-3 23 -19 67 -34 97 -32 64 -101 116 -191 145 -62
20 -192 29 -231 16z"/>
<path d="M7695 10602 c-39 -81 -107 -223 -152 -317 l-82 -170 92 -47 c51 -26
95 -47 98 -47 3 -1 33 55 65 124 32 69 65 125 71 125 21 0 203 -94 203 -105 0
-5 -25 -61 -55 -124 -30 -62 -55 -117 -55 -121 0 -9 166 -90 183 -90 9 0 273
534 302 612 6 15 -11 26 -89 64 -53 26 -98 45 -99 43 -1 -2 -22 -47 -47 -99
-24 -52 -48 -100 -53 -107 -6 -8 -37 2 -109 36 -56 26 -103 52 -105 58 -2 6
19 57 47 114 l51 103 -68 35 c-37 19 -82 40 -98 47 l-31 13 -69 -147z"/>
<path d="M3892 10709 c-37 -7 -160 -57 -344 -139 -27 -11 -48 -25 -48 -30 0
-4 9 -28 19 -52 183 -417 253 -574 259 -579 10 -10 327 134 377 170 60 43 92
89 110 156 18 70 13 122 -21 214 -72 192 -203 289 -352 260z m65 -203 c36 -30
76 -104 98 -178 25 -88 9 -121 -86 -168 l-56 -29 -71 162 c-39 89 -74 170 -77
179 -6 14 2 22 36 37 63 28 121 27 156 -3z"/>
<path d="M3176 10365 c-37 -24 -74 -49 -81 -55 -12 -10 5 -41 90 -168 57 -86
103 -158 101 -159 -2 -2 -99 34 -216 81 l-213 85 -83 -56 c-46 -31 -84 -58
-84 -61 0 -3 6 -13 13 -21 8 -9 94 -135 192 -281 98 -146 181 -268 184 -272 7
-8 166 97 166 109 0 5 -46 77 -103 161 -56 83 -98 152 -93 152 5 0 99 -36 209
-80 110 -44 205 -80 211 -80 9 0 145 85 170 107 3 2 -19 38 -48 81 -30 42
-116 170 -193 284 -77 114 -143 210 -146 212 -4 3 -38 -15 -76 -39z"/>
<path d="M8555 10186 c-77 -32 -169 -127 -216 -222 -29 -58 -34 -78 -34 -143
0 -63 5 -86 28 -133 34 -69 118 -150 207 -198 61 -33 71 -35 155 -35 81 0 95
3 139 29 118 69 215 216 224 336 7 100 -15 156 -95 241 -125 132 -278 179
-408 125z m233 -186 c100 -61 93 -171 -19 -294 -65 -71 -114 -86 -178 -53 -87
43 -110 112 -68 200 70 141 176 201 265 147z"/>
<path d="M5515 9905 c-1186 -124 -2245 -749 -2907 -1715 -327 -478 -531 -963
-642 -1530 -52 -267 -61 -380 -61 -750 0 -365 12 -510 66 -774 200 -996 747
-1857 1564 -2461 546 -404 1179 -656 1890 -751 155 -21 647 -30 816 -15 1131
102 2116 632 2825 1521 468 588 766 1332 839 2098 17 179 20 552 4 727 -49
574 -224 1137 -507 1635 -285 501 -690 949 -1167 1291 -529 379 -1130 616
-1805 710 -199 28 -711 36 -915 14z m825 -240 c1184 -141 2209 -804 2820
-1825 514 -859 663 -1926 405 -2898 -60 -227 -276 -579 -482 -788 -265 -267
-579 -411 -939 -430 -303 -16 -623 61 -959 230 -270 137 -464 276 -684 490
-255 249 -429 501 -520 750 -49 136 -60 212 -71 501 -19 503 -47 659 -167 948
-103 245 -343 560 -573 752 -276 230 -634 390 -997 444 -131 20 -473 -10 -678
-59 -487 -116 -900 -407 -1184 -834 -25 -38 -47 -63 -49 -54 -4 21 90 305 149
449 416 1016 1265 1811 2304 2154 312 104 565 154 955 189 101 9 542 -3 670
-19z m-2223 -3132 c11 -16 16 -42 14 -73 -1 -28 4 -62 12 -77 13 -25 22 -96
18 -145 0 -10 -8 -18 -18 -18 -14 0 -14 -2 2 -21 19 -20 30 -122 30 -271 l0
-53 -40 2 c-22 1 -34 -1 -26 -4 11 -5 11 -7 0 -14 -9 -6 -2 -7 17 -3 26 5 32
2 37 -15 3 -13 0 -21 -8 -21 -8 0 -11 -8 -8 -20 3 -12 0 -20 -8 -20 -8 0 -7
-4 4 -12 32 -24 48 -218 18 -218 -5 0 -11 -13 -14 -29 -3 -15 -23 -46 -44 -68
-21 -23 -42 -48 -48 -57 -6 -9 -30 -19 -55 -22 l-45 -6 -1 53 c-1 30 -5 99 -9
155 -10 126 -1 194 26 201 11 3 16 10 12 17 -9 14 -11 21 -24 140 -6 55 -9
141 -5 190 3 50 6 96 6 101 -6 227 -5 267 13 276 9 6 17 17 17 25 0 19 55 42
86 36 14 -2 32 -16 41 -29z m-569 -143 c21 -20 27 -51 48 -262 l6 -66 -28 -4
-29 -3 32 -18 c33 -18 39 -33 47 -124 2 -22 6 -45 9 -50 3 -4 8 -24 11 -44 3
-20 8 -43 12 -52 3 -10 1 -17 -5 -17 -8 0 -7 -7 3 -22 9 -12 13 -31 10 -42 -3
-13 2 -29 13 -41 32 -35 62 -156 63 -248 0 -50 -3 -59 -22 -68 -22 -9 -22 -9
-2 -5 18 3 23 -2 28 -27 8 -40 0 -46 -58 -49 -45 -3 -49 -1 -69 33 -12 20 -35
56 -51 80 -47 70 -82 167 -85 233 -1 33 -6 67 -10 75 -11 21 -62 300 -61 337
0 16 -6 76 -14 134 -22 158 -20 204 7 235 22 26 77 45 109 37 9 -2 25 -12 36
-22z m1215 -86 c26 -26 46 -86 31 -91 -5 -2 -7 -37 -4 -79 3 -42 2 -78 -2 -81
-5 -2 -8 -17 -8 -33 0 -19 -7 -33 -19 -39 -16 -9 -18 -19 -15 -58 2 -27 6 -57
8 -68 4 -18 -2 -58 -17 -120 -3 -11 -10 -39 -15 -63 -6 -24 -19 -51 -29 -60
-10 -9 -17 -25 -15 -35 2 -9 -6 -33 -18 -52 -12 -19 -19 -39 -15 -45 12 -20
-29 -83 -86 -130 -49 -40 -67 -50 -113 -55 -32 -4 -57 -13 -60 -21 -3 -8 -12
-14 -20 -14 -27 0 -26 -17 4 -51 55 -61 70 -113 42 -141 -7 -7 -12 -22 -12
-34 0 -28 -60 -76 -95 -76 -14 0 -28 -4 -31 -9 -3 -5 34 -9 81 -9 56 0 84 -4
80 -10 -4 -6 -12 -7 -18 -4 -7 4 -9 4 -5 -1 13 -14 -12 -45 -36 -45 -19 0 -23
-4 -19 -20 3 -11 10 -20 17 -20 6 0 4 -4 -4 -10 -12 -8 -12 -10 3 -16 23 -8
22 -34 -2 -34 -14 0 -18 -5 -14 -19 7 -28 -12 -34 -38 -12 -20 17 -22 23 -12
39 15 26 8 32 -37 32 -47 0 -100 -19 -215 -75 -91 -45 -135 -75 -135 -93 0 -5
-9 -17 -20 -27 -28 -25 -25 -34 15 -51 19 -8 35 -19 35 -24 0 -6 6 -10 13 -10
22 0 60 -37 45 -43 -9 -4 -8 -6 3 -6 9 -1 27 -16 39 -35 17 -24 29 -32 43 -28
14 3 18 1 13 -6 -11 -19 2 -14 24 8 15 15 34 20 73 21 28 0 61 3 72 5 30 7 57
7 88 0 16 -4 27 -2 27 4 0 5 -10 10 -22 11 -22 1 -22 1 2 9 l25 8 -25 2 c-14
1 -19 4 -11 7 11 5 11 7 0 14 -11 7 -11 9 3 9 9 0 18 5 20 11 3 9 9 9 25 1 22
-12 44 -16 136 -27 44 -5 64 -13 80 -31 11 -13 27 -24 34 -24 7 0 13 -7 13
-16 0 -9 9 -18 20 -21 11 -3 20 -9 20 -15 0 -13 32 -44 53 -51 13 -5 17 -1 17
18 0 14 4 25 9 25 5 0 7 -8 4 -19 -4 -15 4 -21 42 -32 63 -19 73 -33 48 -67
-11 -15 -36 -36 -56 -47 -22 -12 -37 -27 -37 -39 0 -25 -41 -106 -53 -106 -5
0 -39 -25 -74 -55 -83 -71 -137 -102 -224 -130 -39 -12 -80 -30 -91 -39 -13
-11 -30 -16 -46 -13 -24 5 -48 -4 -82 -29 -8 -7 -25 -15 -38 -19 -12 -3 -34
-17 -48 -30 -18 -17 -42 -25 -87 -30 -34 -3 -86 -10 -116 -16 -71 -12 -187
-12 -209 1 -9 5 -36 14 -59 20 -23 6 -52 19 -65 30 -13 11 -36 29 -51 41 -32
25 -128 168 -164 245 -43 94 -105 443 -128 721 -5 56 -3 80 9 105 9 17 16 32
16 33 0 1 -19 14 -42 29 -31 19 -60 53 -103 123 -33 52 -63 104 -67 115 -4 11
-15 27 -24 36 -15 14 -59 103 -140 278 -36 79 -74 199 -74 235 0 40 39 93 78
107 55 19 122 -33 138 -108 3 -14 10 -41 15 -60 18 -59 18 -133 2 -152 -13
-15 -13 -16 5 -12 14 4 28 -5 50 -32 17 -21 29 -41 26 -45 -2 -4 5 -24 17 -44
20 -34 20 -37 5 -54 -17 -18 -16 -20 18 -31 33 -11 50 -30 26 -30 -5 0 -10 -4
-10 -10 0 -5 6 -7 14 -4 15 6 79 -29 71 -38 -3 -3 5 -12 19 -21 24 -16 56 -69
56 -94 0 -7 5 -13 10 -13 6 0 10 -6 9 -12 -3 -29 2 -36 24 -30 22 5 22 5 3
-16 -19 -22 -19 -22 7 -20 15 1 27 8 27 14 0 14 81 64 104 64 8 0 27 11 42 25
15 14 35 25 45 25 13 0 19 9 21 33 4 38 29 44 38 7 l6 -24 16 23 c10 14 28 24
46 25 16 2 33 6 39 9 6 4 14 0 17 -9 6 -15 8 -15 24 -1 24 22 90 18 98 -5 3
-10 9 -16 14 -13 4 3 25 -2 45 -11 39 -16 71 -12 59 8 -5 8 0 9 14 6 17 -5 22
-2 22 14 0 10 4 17 9 14 5 -4 22 0 38 8 15 8 35 17 43 20 8 3 22 10 30 15 8 5
36 19 62 32 41 20 52 33 85 97 21 41 54 120 73 175 26 76 41 104 57 112 24 10
39 35 23 35 -19 0 -10 46 35 184 25 76 42 142 39 147 -8 13 16 158 33 199 35
85 98 113 146 64z m-803 -1012 c0 -28 -11 -34 -26 -14 -9 13 -9 19 -1 24 19
12 27 9 27 -10z m-205 -52 c-3 -5 0 -10 7 -10 9 0 9 -3 -2 -10 -8 -5 -18 -10
-22 -10 -13 0 -9 28 5 33 18 8 19 8 12 -3z m1652 -296 c-3 -3 -12 -4 -19 -1
-8 3 -5 6 6 6 11 1 17 -2 13 -5z m87 -53 c11 -16 26 -27 33 -24 23 9 14 -18
-19 -57 -42 -49 -224 -210 -237 -210 -5 0 -16 -8 -23 -18 -13 -18 -198 -145
-251 -171 -15 -8 -23 -17 -19 -20 5 -3 -5 -21 -22 -38 -38 -40 -56 -32 -61 25
-2 23 -6 51 -10 61 -6 21 21 61 42 61 8 0 11 9 7 28 -10 49 67 141 131 156 38
10 55 24 55 47 0 11 7 19 16 19 10 0 14 6 11 15 -7 17 37 55 64 55 11 0 19 5
19 10 0 6 6 10 14 10 7 0 19 7 26 15 7 8 19 15 28 15 8 0 25 11 38 25 19 21
32 25 81 25 53 0 60 -3 77 -29z m-924 -345 c16 -13 35 -26 42 -29 7 -2 11 -7
8 -10 -7 -7 -184 35 -188 45 -2 5 -9 5 -15 1 -8 -4 -7 -1 1 9 7 9 12 20 11 24
-1 5 -1 12 0 15 2 12 113 -31 141 -55z"/>
<path d="M5300 9032 c-206 -55 -320 -221 -320 -461 1 -245 128 -418 340 -462
85 -18 283 -7 350 19 120 47 202 137 243 267 30 97 30 271 -1 364 -42 129
-141 228 -266 267 -78 25 -265 28 -346 6z m251 -218 c42 -21 76 -69 89 -125
16 -66 8 -231 -14 -281 -25 -59 -77 -91 -151 -96 -141 -9 -207 73 -207 258 0
146 38 223 128 256 43 16 113 10 155 -12z"/>
<path d="M7468 9035 c-169 -43 -287 -169 -319 -340 -15 -78 -5 -246 17 -310
50 -146 162 -244 314 -276 82 -17 283 -7 346 18 159 62 241 178 264 372 32
260 -77 460 -289 527 -67 22 -262 27 -333 9z m242 -220 c74 -38 105 -121 98
-264 -9 -176 -66 -245 -199 -239 -81 4 -130 37 -162 107 -29 63 -31 224 -4
293 20 52 73 105 115 114 15 3 32 7 37 9 17 6 88 -7 115 -20z"/>
<path d="M4080 8575 l0 -465 140 0 140 0 0 170 c0 94 3 170 8 170 290 8 346
21 418 95 57 59 78 124 72 229 -5 89 -26 142 -75 187 -71 67 -141 79 -465 79
l-238 0 0 -465z m446 260 c47 -19 70 -72 54 -121 -17 -50 -49 -67 -141 -72
l-79 -5 0 107 0 106 65 0 c36 0 81 -7 101 -15z"/>
<path d="M6100 8575 l0 -465 140 0 140 0 0 190 0 191 158 -3 157 -3 3 -187 2
-188 140 0 140 0 0 465 0 465 -140 0 -140 0 -2 -162 -3 -163 -157 -3 -158 -3
0 166 0 165 -140 0 -140 0 0 -465z"/>
<path d="M7335 7806 c-67 -29 -129 -129 -162 -261 -23 -96 -23 -313 0 -410 34
-137 112 -253 182 -271 97 -24 192 75 241 253 9 32 18 115 21 184 10 239 -56
434 -168 498 -42 24 -71 26 -114 7z"/>
<path d="M7915 7805 c-94 -51 -154 -181 -174 -379 -32 -313 104 -602 263 -562
69 17 140 123 177 265 30 112 30 306 0 421 -53 202 -165 309 -266 255z"/>
<path d="M6762 7389 c-106 -53 -175 -236 -174 -464 0 -191 46 -344 128 -428
42 -43 68 -52 127 -44 34 5 51 15 89 56 128 139 160 480 68 723 -27 73 -99
154 -148 168 -47 13 -40 13 -90 -11z"/>
<path d="M8484 7391 c-69 -31 -127 -127 -160 -266 -26 -108 -24 -307 4 -414
47 -173 117 -261 208 -261 133 0 234 205 234 475 0 312 -136 534 -286 466z"/>
<path d="M7580 6725 c-133 -37 -310 -183 -582 -479 -189 -205 -276 -342 -285
-446 -7 -76 9 -120 61 -168 55 -51 156 -77 296 -77 104 0 97 -3 268 103 103
64 170 84 293 90 128 5 169 -5 354 -89 169 -76 248 -96 310 -79 62 17 112 69
158 165 41 82 77 206 77 259 0 17 -7 55 -14 84 -27 99 -75 156 -248 287 -75
58 -158 127 -185 155 -69 73 -172 147 -244 176 -80 33 -183 40 -259 19z"/>
<path d="M4036 6475 c4 -8 8 -15 10 -15 2 0 4 7 4 15 0 8 -4 15 -10 15 -5 0
-7 -7 -4 -15z"/>
<path d="M4090 6428 c-12 -8 -12 -9 2 -5 9 3 19 1 22 -6 3 -9 5 -9 5 0 1 18
-13 23 -29 11z"/>
<path d="M3485 6250 c-3 -5 -1 -10 4 -10 6 0 11 5 11 10 0 6 -2 10 -4 10 -3 0
-8 -4 -11 -10z"/>
<path d="M3518 6043 c7 -3 16 -2 19 1 4 3 -2 6 -13 5 -11 0 -14 -3 -6 -6z"/>
<path d="M3577 5693 c-3 -3 0 -15 6 -27 7 -11 12 -22 13 -24 1 -1 12 2 25 7
17 7 19 10 7 10 -10 1 -18 7 -18 15 0 15 -24 28 -33 19z"/>
<path d="M4729 6236 c0 -1 -2 -11 -5 -23 -4 -22 -3 -22 16 -6 24 21 25 30 5
30 -8 0 -15 -1 -16 -1z"/>
<path d="M3835 4571 c-3 -5 -1 -12 4 -15 5 -3 11 1 15 9 6 16 -9 21 -19 6z"/>
<path d="M3710 4566 c0 -22 36 -85 69 -121 22 -24 47 -57 55 -74 9 -17 20 -31
25 -31 5 0 12 -15 15 -32 4 -23 18 -41 44 -58 56 -37 57 -36 18 18 -20 27 -36
57 -36 67 0 15 -70 120 -90 135 -4 3 -12 15 -19 28 -6 12 -18 22 -26 22 -7 0
-23 12 -34 26 -12 15 -21 24 -21 20z"/>
<path d="M2393 9736 c-96 -31 -202 -123 -254 -219 -31 -56 -34 -70 -34 -147 0
-74 4 -93 29 -144 36 -74 128 -166 204 -203 49 -24 69 -28 142 -28 109 0 159
23 256 120 94 93 119 146 119 250 0 68 -4 89 -29 140 -37 75 -134 173 -210
210 -67 33 -160 42 -223 21z m123 -207 c51 -31 133 -129 145 -172 23 -85 -52
-177 -143 -177 -64 0 -179 96 -215 180 -52 123 97 241 213 169z"/>
<path d="M9247 9603 c-113 -42 -240 -173 -268 -276 -17 -63 -7 -164 21 -222
13 -28 56 -83 99 -126 60 -60 89 -81 136 -98 126 -47 249 -13 368 102 91 88
121 150 121 252 1 68 -3 89 -27 137 -36 74 -137 178 -207 213 -71 36 -173 44
-243 18z m200 -193 c85 -38 110 -140 54 -217 -63 -87 -170 -153 -226 -139 -15
4 -45 24 -67 44 -48 46 -61 107 -34 161 36 69 118 141 184 161 39 12 43 12 89
-10z"/>
<path d="M1751 9083 c-29 -42 -55 -82 -57 -88 -3 -7 30 -36 73 -65 43 -30 88
-61 100 -70 l22 -17 -60 -84 c-33 -46 -64 -90 -69 -98 -6 -11 -29 0 -104 52
-53 37 -100 67 -106 67 -16 0 -124 -170 -114 -179 8 -7 152 -106 459 -316 50
-34 95 -65 101 -68 6 -4 37 31 72 82 l61 88 -114 78 c-63 43 -115 82 -115 87
0 13 124 188 133 188 4 0 57 -34 116 -75 60 -41 111 -75 114 -75 6 0 128 173
124 175 -5 4 -367 254 -459 318 -53 37 -103 69 -110 72 -8 3 -34 -26 -67 -72z"/>
<path d="M9704 8829 c-159 -106 -290 -193 -292 -194 -3 -3 282 -441 299 -459
12 -14 152 81 142 97 -4 7 -44 68 -90 136 -46 69 -82 130 -80 135 2 6 99 74
215 151 116 77 212 144 212 148 0 7 -92 150 -109 170 -4 4 -137 -79 -297 -184z"/>
<path d="M1474 4321 c-339 -144 -384 -164 -384 -173 0 -19 62 -158 70 -158 5
0 50 18 101 40 51 22 94 38 97 35 2 -2 23 -41 46 -87 55 -110 95 -143 174
-142 66 0 126 27 165 74 54 64 47 113 -51 342 l-58 136 -160 -67z m134 -175
c24 -53 25 -93 3 -115 -26 -26 -72 -27 -93 -3 -23 26 -50 83 -43 90 6 7 106
51 116 52 3 0 11 -11 17 -24z"/>
<path d="M10201 4308 c-5 -13 -18 -45 -30 -71 l-21 -48 27 -10 27 -10 -39 -22
c-101 -57 -124 -183 -49 -266 84 -94 242 -115 319 -44 49 46 71 135 45 184
-13 23 -12 23 36 3 56 -23 74 -42 74 -80 0 -34 -31 -74 -56 -74 -17 0 -95
-133 -84 -143 17 -18 85 -18 120 0 87 45 166 253 131 345 -16 43 -71 84 -159
121 -48 20 -141 59 -207 87 -66 27 -121 50 -123 50 -1 0 -6 -10 -11 -22z m169
-228 c37 -26 42 -78 10 -110 -25 -25 -60 -25 -110 0 -64 33 -77 74 -34 117 21
21 32 25 64 20 22 -3 53 -15 70 -27z"/>
<path d="M1639 3801 c-97 -38 -175 -108 -212 -190 -39 -89 -5 -225 82 -330 86
-103 214 -126 345 -62 77 37 142 96 171 156 15 30 20 59 19 115 0 64 -5 84
-33 138 -66 129 -153 192 -266 191 -33 0 -81 -8 -106 -18z m191 -166 c31 -16
47 -39 61 -88 30 -104 -177 -237 -273 -175 -33 22 -63 97 -54 135 10 36 69 91
131 119 58 28 95 30 135 9z"/>
<path d="M10013 3813 c-31 -6 -90 -75 -102 -120 -6 -24 -7 -53 -1 -78 5 -22 7
-41 6 -43 -2 -1 -15 3 -30 9 -14 7 -28 10 -29 8 -23 -29 -67 -123 -60 -129 15
-15 351 -200 361 -200 10 0 82 117 82 133 0 3 -35 24 -77 48 -137 74 -163 95
-163 133 0 33 25 66 49 66 15 0 110 -48 187 -94 32 -20 62 -36 66 -36 8 0 78
122 78 136 0 12 -226 140 -281 159 -42 15 -47 16 -86 8z"/>
<path d="M9560 3431 c-22 -33 -40 -64 -40 -68 0 -7 58 -50 81 -61 8 -3 89 113
89 128 0 9 -69 60 -82 60 -4 0 -25 -27 -48 -59z"/>
<path d="M9700 3341 c-22 -33 -40 -64 -40 -70 0 -5 48 -42 108 -82 59 -40 135
-92 168 -116 34 -23 65 -43 70 -43 9 0 98 130 92 134 -18 14 -351 236 -354
236 -2 0 -21 -27 -44 -59z"/>
<path d="M9434 3248 c-22 -29 -43 -58 -47 -64 -3 -6 28 -36 69 -68 75 -58 88
-76 56 -76 -32 0 -89 -48 -112 -95 -41 -85 -13 -171 82 -246 65 -51 142 -74
197 -59 76 20 131 89 131 164 0 37 8 44 28 24 14 -14 35 3 79 65 l30 42 -227
183 c-125 100 -232 182 -236 182 -5 0 -28 -24 -50 -52z m246 -314 c47 -43 56
-66 40 -105 -18 -42 -53 -48 -108 -19 -74 40 -98 105 -52 142 35 29 75 23 120
-18z"/>
<path d="M1932 3210 c-64 -39 -68 -103 -12 -219 48 -99 51 -131 15 -131 -14 0
-37 12 -52 26 -22 22 -25 31 -20 68 6 41 4 44 -47 95 l-54 53 -16 -23 c-22
-32 -20 -106 3 -152 33 -65 103 -147 146 -173 111 -64 230 11 203 129 -5 22
-26 73 -48 114 -40 76 -42 103 -9 103 32 0 61 -37 57 -76 -2 -29 5 -41 47 -84
27 -27 53 -50 57 -50 13 0 29 80 23 111 -7 33 -62 117 -109 168 -57 61 -125
77 -184 41z"/>
<path d="M2408 2963 l-36 -38 54 -59 54 -60 33 30 c17 16 36 32 41 36 9 7 -89
128 -103 128 -4 0 -23 -17 -43 -37z"/>
<path d="M9098 2852 l-57 -59 40 -39 39 -38 58 57 57 57 -41 40 -40 41 -56
-59z"/>
<path d="M2180 2759 c-80 -71 -151 -136 -159 -144 -12 -12 -6 -22 42 -72 l56
-58 23 21 c13 11 85 76 161 143 l137 124 -52 56 c-29 31 -55 57 -58 58 -3 1
-70 -56 -150 -128z"/>
<path d="M9214 2733 l-50 -57 95 -91 c53 -50 123 -117 157 -148 l61 -57 51 54
c29 30 52 59 52 64 0 11 -288 286 -304 290 -7 1 -35 -23 -62 -55z"/>
<path d="M2548 2713 l-27 -27 -24 22 -23 22 -42 -43 -42 -43 22 -22 22 -22
-76 -78 c-87 -88 -98 -106 -98 -158 0 -34 8 -46 64 -101 36 -35 69 -63 75 -63
5 0 24 18 41 40 l32 41 -26 24 c-14 13 -26 29 -26 34 0 11 118 141 129 141 3
0 20 -13 36 -29 l30 -29 42 41 43 41 -32 33 -32 33 58 59 58 59 -79 26 c-43
14 -83 26 -88 26 -6 0 -23 -12 -37 -27z"/>
<path d="M2819 2549 l-32 -41 59 -54 59 -53 37 42 38 42 -58 52 c-31 29 -60
52 -64 53 -3 0 -21 -18 -39 -41z"/>
<path d="M9048 2546 c-58 -21 -133 -82 -170 -138 -29 -46 -33 -61 -33 -118 1
-74 26 -125 90 -177 97 -80 199 -67 311 39 72 68 94 111 94 184 l0 56 -61 -44
c-45 -32 -64 -54 -74 -81 -16 -48 -30 -64 -62 -72 -27 -6 -83 11 -83 26 0 4
54 56 119 115 133 119 131 115 58 170 -71 53 -122 64 -189 40z m53 -135 l23
-19 -54 -50 c-59 -55 -74 -61 -84 -36 -14 36 -6 75 20 99 32 30 63 32 95 6z"/>
<path d="M2606 2303 c-75 -87 -136 -160 -136 -163 0 -8 110 -100 119 -100 4 0
70 73 146 161 115 135 136 164 124 173 -9 6 -36 28 -61 49 -25 20 -48 37 -51
37 -3 0 -67 -71 -141 -157z"/>
<path d="M8579 2384 c-7 -9 -32 -29 -56 -45 l-43 -30 181 -239 181 -240 61 47
c34 25 64 48 66 49 8 7 -351 474 -363 474 -8 0 -19 -7 -27 -16z"/>
<path d="M2874 2225 c-107 -47 -171 -205 -121 -301 59 -113 237 -201 332 -164
l30 12 -60 54 c-49 43 -67 54 -96 54 -56 0 -88 39 -79 100 4 36 25 27 150 -63
l133 -96 19 24 c48 62 63 166 32 231 -22 46 -95 111 -157 140 -59 27 -133 31
-183 9z m190 -126 c20 -16 26 -29 26 -60 0 -25 -5 -42 -14 -45 -15 -6 -126 71
-126 87 0 13 43 39 66 39 12 0 33 -9 48 -21z"/>
<path d="M8404 2061 c-46 -21 -83 -63 -91 -103 -8 -38 -18 -42 -31 -13 l-12
25 -62 -41 c-35 -22 -62 -46 -60 -52 3 -10 124 -204 268 -430 l44 -67 57 36
c32 20 63 41 70 46 8 7 -2 30 -38 86 -27 42 -49 80 -49 85 0 4 14 7 32 7 91 0
172 83 172 174 0 102 -89 226 -182 254 -53 16 -70 15 -118 -7z m80 -152 c35
-28 56 -70 56 -114 0 -30 -5 -38 -34 -51 -29 -14 -37 -15 -62 -3 -33 16 -74
82 -74 122 0 33 32 67 64 67 13 0 35 -9 50 -21z"/>
<path d="M3256 1828 c-15 -117 -30 -221 -32 -230 -4 -12 12 -26 60 -53 l66
-37 185 138 c102 76 185 141 185 144 0 4 -104 66 -132 78 -5 2 -55 -40 -113
-93 -58 -54 -105 -94 -105 -89 0 5 14 69 31 142 18 73 30 134 28 135 -18 14
-132 77 -138 77 -4 0 -20 -96 -35 -212z"/>
<path d="M7909 1776 c-70 -28 -106 -56 -141 -108 -69 -102 -29 -251 85 -314
41 -22 58 -26 110 -22 66 4 137 33 188 75 97 82 99 233 5 328 -69 69 -149 82
-247 41z m113 -133 c55 -57 65 -138 22 -172 -15 -12 -37 -21 -49 -21 -50 0
-105 75 -105 144 0 72 81 102 132 49z"/>
<path d="M3714 1721 c-70 -32 -134 -135 -134 -215 0 -84 57 -158 158 -204 91
-42 144 -49 206 -25 27 10 51 23 53 28 1 6 -25 26 -60 45 -46 26 -71 34 -99
32 -52 -5 -76 5 -93 38 -17 33 -18 49 -7 68 7 9 44 -4 152 -53 79 -36 149 -64
155 -61 17 6 35 77 35 136 0 95 -60 165 -179 210 -64 25 -134 25 -187 1z m190
-112 c20 -16 26 -29 26 -60 0 -21 -4 -39 -9 -39 -18 0 -141 61 -141 69 0 16
52 51 75 51 12 0 34 -9 49 -21z"/>
<path d="M4460 1621 c-80 -300 -137 -543 -127 -546 7 -2 47 -13 89 -24 l78
-19 10 39 c5 21 14 56 19 77 5 20 14 56 20 78 l11 42 99 -25 98 -25 -28 -111
c-16 -62 -29 -115 -29 -118 0 -7 170 -52 175 -47 8 8 147 569 142 574 -6 6
-145 44 -162 44 -6 0 -21 -44 -35 -97 -13 -54 -24 -99 -26 -101 -3 -5 -179 40
-188 49 -5 4 0 44 13 93 11 47 21 91 21 99 0 8 -31 21 -85 34 l-85 20 -10 -36z"/>
<path d="M7491 1595 c-52 -16 -88 -48 -109 -95 l-15 -35 -10 33 c-5 17 -14 32
-18 32 -13 0 -123 -42 -132 -50 -4 -3 6 -42 22 -86 16 -43 48 -132 72 -196 23
-65 47 -118 53 -118 6 0 36 9 66 20 30 12 60 23 67 25 9 3 0 37 -27 115 -44
123 -49 168 -22 193 23 21 65 22 81 3 7 -8 31 -68 54 -133 23 -66 45 -121 50
-122 17 -5 147 44 147 55 0 22 -103 289 -121 315 -19 27 -76 60 -101 58 -7 0
-33 -6 -57 -14z"/>
<path d="M6518 1501 c-26 -4 -50 -9 -53 -12 -3 -3 -1 -37 5 -75 5 -38 10 -81
10 -97 l0 -28 -32 17 c-44 23 -134 15 -176 -15 -55 -39 -75 -91 -70 -185 4
-92 23 -141 75 -191 62 -60 164 -55 228 11 l34 34 3 -27 c3 -30 12 -32 116
-17 39 5 43 8 39 27 -3 12 -20 145 -38 295 l-33 272 -31 -1 c-16 -1 -51 -5
-77 -8z m-63 -301 c51 -20 72 -125 34 -174 -47 -60 -116 -18 -126 77 -5 50 -3
58 20 81 29 29 35 30 72 16z"/>
<path d="M5199 1474 c-63 -19 -131 -81 -159 -146 -31 -73 -39 -197 -16 -266
37 -111 133 -177 277 -189 164 -14 274 62 314 214 48 184 -23 334 -179 382
-78 24 -169 26 -237 5z m206 -154 c35 -33 48 -82 40 -148 -8 -72 -38 -136 -71
-150 -55 -26 -134 -7 -163 39 -19 32 -24 101 -11 164 9 45 21 68 46 93 32 32
38 34 85 30 33 -4 58 -13 74 -28z"/>
<path d="M6891 1412 c-80 -23 -145 -89 -161 -163 -30 -136 73 -279 203 -279
58 0 153 26 204 56 41 24 103 108 89 121 -3 4 -38 2 -77 -4 -52 -8 -76 -18
-95 -36 -31 -31 -64 -40 -98 -27 -24 9 -56 54 -45 64 2 2 75 20 161 40 l157
37 -14 46 c-20 66 -59 120 -105 143 -48 25 -140 26 -219 2z m125 -107 c14 -14
24 -31 22 -37 -4 -10 -121 -47 -150 -48 -12 0 -9 39 4 63 28 53 83 62 124 22z"/>
<path d="M5934 1290 c-17 -5 -43 -21 -58 -35 -34 -32 -46 -32 -46 0 0 24 -2
25 -75 25 l-75 0 0 -154 c0 -84 3 -181 6 -215 l7 -61 78 0 79 0 0 135 c0 131
1 137 25 160 29 30 45 31 76 6 23 -18 24 -26 27 -161 l4 -143 51 7 c29 3 65 6
80 6 l29 0 -4 173 c-3 185 -9 207 -61 242 -30 19 -103 27 -143 15z"/>
</g>
</svg>
